<svg width="31" height="29" viewBox="0 0 31 29" fill="none" xmlns="http://www.w3.org/2000/svg">
<path d="M28.1867 8.97913C28.0679 8.81851 27.9093 8.68722 27.7244 8.59652C27.5394 8.50582 27.3338 8.4584 27.125 8.45834H9.47177L7.98119 5.11126C7.78575 4.67048 7.45479 4.29392 7.0303 4.02933C6.6058 3.76473 6.10687 3.62401 5.59677 3.62501H2.58331V6.04167H5.59677L11.7244 19.7985C11.8226 20.0187 11.9882 20.2067 12.2003 20.3389C12.4125 20.4711 12.6617 20.5417 12.9166 20.5417H23.25C23.7886 20.5417 24.2704 20.2287 24.4603 19.7587L28.3353 10.092C28.4085 9.90909 28.4333 9.71229 28.4074 9.51847C28.3815 9.32465 28.3058 9.13958 28.1867 8.97913Z" fill="#C5C5C5"/>
<path d="M13.5625 25.375C14.6326 25.375 15.5 24.5635 15.5 23.5625C15.5 22.5615 14.6326 21.75 13.5625 21.75C12.4924 21.75 11.625 22.5615 11.625 23.5625C11.625 24.5635 12.4924 25.375 13.5625 25.375Z" fill="#C5C5C5"/>
<path d="M22.6042 25.375C23.6742 25.375 24.5417 24.5635 24.5417 23.5625C24.5417 22.5615 23.6742 21.75 22.6042 21.75C21.5341 21.75 20.6667 22.5615 20.6667 23.5625C20.6667 24.5635 21.5341 25.375 22.6042 25.375Z" fill="#C5C5C5"/>
</svg>
