<svg width="31" height="29" viewBox="0 0 31 29" fill="none" xmlns="http://www.w3.org/2000/svg">
<path d="M0 1.03574C0 0.761046 0.125618 0.497601 0.349219 0.303362C0.57282 0.109122 0.876088 0 1.19231 0H29.8077C30.1239 0 30.4272 0.109122 30.6508 0.303362C30.8744 0.497601 31 0.761046 31 1.03574V5.17871C30.9999 5.43414 30.8912 5.68055 30.6948 5.87059L20.2692 15.9339V25.8936C20.269 26.1109 20.1902 26.3226 20.0438 26.4988C19.8975 26.675 19.691 26.8068 19.4537 26.8754L12.2998 28.9469C12.1207 28.9988 11.9299 29.0129 11.7433 28.9882C11.5566 28.9634 11.3794 28.9005 11.2262 28.8047C11.073 28.7088 10.9482 28.5827 10.862 28.4367C10.7759 28.2907 10.7309 28.1291 10.7308 27.965V15.9339L0.305231 5.87059C0.108758 5.68055 5.28201e-05 5.43414 0 5.17871V1.03574Z" fill="#C5C5C5"/>
</svg>
