<svg width="27" height="23" viewBox="0 0 27 23" fill="none" xmlns="http://www.w3.org/2000/svg">
<path d="M26.1867 5.97913C26.0679 5.81851 25.9093 5.68722 25.7244 5.59652C25.5394 5.50582 25.3338 5.4584 25.125 5.45834H7.47177L5.98119 2.11126C5.78575 1.67048 5.45479 1.29392 5.0303 1.02933C4.6058 0.764729 4.10687 0.624008 3.59677 0.625005H0.583313V3.04167H3.59677L9.72444 16.7985C9.82259 17.0187 9.98817 17.2067 10.2003 17.3389C10.4125 17.4711 10.6617 17.5417 10.9166 17.5417H21.25C21.7886 17.5417 22.2704 17.2287 22.4603 16.7587L26.3353 7.09201C26.4085 6.90909 26.4333 6.71229 26.4074 6.51847C26.3815 6.32465 26.3058 6.13958 26.1867 5.97913Z" fill="#C5C5C5"/>
<path d="M11.5625 22.375C12.6326 22.375 13.5 21.5635 13.5 20.5625C13.5 19.5615 12.6326 18.75 11.5625 18.75C10.4924 18.75 9.625 19.5615 9.625 20.5625C9.625 21.5635 10.4924 22.375 11.5625 22.375Z" fill="#C5C5C5"/>
<path d="M20.6042 22.375C21.6742 22.375 22.5417 21.5635 22.5417 20.5625C22.5417 19.5615 21.6742 18.75 20.6042 18.75C19.5341 18.75 18.6667 19.5615 18.6667 20.5625C18.6667 21.5635 19.5341 22.375 20.6042 22.375Z" fill="#C5C5C5"/>
</svg>
