<svg width="31" height="29" viewBox="0 0 31 29" fill="none" xmlns="http://www.w3.org/2000/svg">
<path d="M30.25 5.94297C29.769 4.78 29.0755 3.72613 28.2082 2.84035C27.3403 1.95193 26.317 1.24591 25.194 0.760694C24.0295 0.255555 22.7805 -0.0030044 21.5195 2.63381e-05C19.7504 2.63381e-05 18.0244 0.505889 16.5245 1.46141C16.1656 1.68998 15.8247 1.94104 15.5018 2.21458C15.1788 1.94104 14.8379 1.68998 14.4791 1.46141C12.9791 0.505889 11.2531 2.63381e-05 9.48407 2.63381e-05C8.2102 2.63381e-05 6.9758 0.254831 5.80958 0.760694C4.68283 1.24782 3.66732 1.94853 2.79534 2.84035C1.92694 3.72513 1.23324 4.77925 0.753559 5.94297C0.254775 7.1533 0 8.43856 0 9.7613C0 11.0091 0.24401 12.3093 0.72844 13.6321C1.13393 14.7375 1.71524 15.8841 2.45804 17.042C3.63502 18.8743 5.25338 20.7854 7.26287 22.7226C10.5929 25.9339 13.8906 28.1522 14.0305 28.2421L14.881 28.8117C15.2578 29.0628 15.7422 29.0628 16.119 28.8117L16.9694 28.2421C17.1094 28.1485 20.4035 25.9339 23.7371 22.7226C25.7466 20.7854 27.3649 18.8743 28.5419 17.042C29.2847 15.8841 29.8696 14.7375 30.2715 13.6321C30.756 12.3093 31 11.0091 31 9.7613C31.0036 8.43856 30.7488 7.1533 30.25 5.94297Z" fill="#C5C5C5"/>
</svg>
