<svg width="23" height="23" viewBox="0 0 23 23" fill="none" xmlns="http://www.w3.org/2000/svg">
<path d="M20.0938 0.5625H2.90625C1.6123 0.5625 0.5625 1.6123 0.5625 2.90625V20.0938C0.5625 21.3877 1.6123 22.4375 2.90625 22.4375H20.0938C21.3877 22.4375 22.4375 21.3877 22.4375 20.0938V2.90625C22.4375 1.6123 21.3877 0.5625 20.0938 0.5625ZM18.5312 12.8672C18.5312 13.1895 18.2676 13.4531 17.9453 13.4531H13.4531V17.9453C13.4531 18.2676 13.1895 18.5312 12.8672 18.5312H10.1328C9.81055 18.5312 9.54688 18.2676 9.54688 17.9453V13.4531H5.05469C4.73242 13.4531 4.46875 13.1895 4.46875 12.8672V10.1328C4.46875 9.81055 4.73242 9.54688 5.05469 9.54688H9.54688V5.05469C9.54688 4.73242 9.81055 4.46875 10.1328 4.46875H12.8672C13.1895 4.46875 13.4531 4.73242 13.4531 5.05469V9.54688H17.9453C18.2676 9.54688 18.5312 9.81055 18.5312 10.1328V12.8672Z" fill="#3FC979"/>
</svg>
