<svg width="21" height="22" viewBox="0 0 21 22" fill="none" xmlns="http://www.w3.org/2000/svg">
<path d="M20.9369 19.5541L14.1198 12.8125C15.1777 11.4601 15.7499 9.80647 15.7499 8.06722C15.7499 5.98532 14.9283 4.0332 13.4426 2.56133C11.9568 1.08946 9.97758 0.279541 7.87497 0.279541C5.77235 0.279541 3.79311 1.09206 2.30736 2.56133C0.818996 4.03061 0 5.98532 0 8.06722C0 10.1465 0.821621 12.1038 2.30736 13.5731C3.79311 15.045 5.76972 15.8549 7.87497 15.8549C9.63371 15.8549 11.3032 15.289 12.6708 14.2455L19.4879 20.9844C19.5079 21.0042 19.5316 21.0199 19.5578 21.0306C19.5839 21.0413 19.6119 21.0468 19.6402 21.0468C19.6684 21.0468 19.6964 21.0413 19.7226 21.0306C19.7487 21.0199 19.7724 21.0042 19.7924 20.9844L20.9369 19.8552C20.9569 19.8354 20.9728 19.8119 20.9836 19.7861C20.9944 19.7603 21 19.7326 21 19.7046C21 19.6767 20.9944 19.649 20.9836 19.6231C20.9728 19.5973 20.9569 19.5738 20.9369 19.5541ZM12.0329 12.1791C10.92 13.2772 9.44471 13.882 7.87497 13.882C6.30522 13.882 4.82998 13.2772 3.71698 12.1791C2.60661 11.0785 1.99499 9.61957 1.99499 8.06722C1.99499 6.51488 2.60661 5.05339 3.71698 3.95533C4.82998 2.85726 6.30522 2.25242 7.87497 2.25242C9.44471 2.25242 10.9226 2.85467 12.0329 3.95533C13.1433 5.05599 13.7549 6.51488 13.7549 8.06722C13.7549 9.61957 13.1433 11.0811 12.0329 12.1791Z" fill="#445544"/>
</svg>
